Results
version=1
nRows=17
nColumns=24
inDegrees=yes
endheader
time	pelvis_tilt	pelvis_list	pelvis_rotation	pelvis_tx	pelvis_ty	pelvis_tz	hip_flexion_r	hip_adduction_r	hip_rotation_r	knee_angle_r	ankle_angle_r	subtalar_angle_r	mtp_angle_r	hip_flexion_l	hip_adduction_l	hip_rotation_l	knee_angle_l	ankle_angle_l	subtalar_angle_l	mtp_angle_l	lumbar_extension	lumbar_bending	lumbar_rotation
      0.88516667	     -8.96506673	     -4.15304330	      3.58491912	     -0.39894360	      0.89781893	      0.36254226	     21.94704232	      9.13524383	     -4.74382773	    -21.50042230	      9.00655659	     -0.64208494	      6.41342092	     20.57512922	     -9.00773325	     -3.66762252	    -65.59153642	      4.81519700	     -1.89130699	      5.72558767	      6.36015446	      5.43295553	     -1.64250765
      0.88933333	     -8.97435478	     -4.03832469	      3.35207384	     -0.39425597	      0.89875564	      0.36309048	     21.38962502	      9.14213345	     -4.48799677	    -21.07150105	      9.06536661	     -0.48218102	      6.42296404	     21.15972260	     -8.87094006	     -3.92666902	    -65.23071457	      5.24324738	     -1.95824881	      5.70534452	      6.32006480	      5.36391387	     -1.48494846
      0.89350000	     -8.93003483	     -3.93312028	      3.11720610	     -0.38951776	      0.89975868	      0.36365493	     20.75612349	      9.16261086	     -4.23349919	    -20.60837964	      9.14600359	     -0.34999677	      6.43722021	     21.66497816	     -8.76395837	     -4.20628534	    -64.81029129	      5.63052120	     -1.95317865	      5.66303110	      6.22120770	      5.29175685	     -1.12767645
      0.89766667	     -8.92416203	     -3.81110258	      2.85547520	     -0.38482419	      0.90064863	      0.36423568	     20.18293477	      9.16035247	     -3.97064435	    -20.17956594	      9.19862775	     -0.19865386	      6.44530014	     22.20251297	     -8.64965409	     -4.52957842	    -64.35904055	      6.00652001	     -2.02280828	      5.64289555	      6.19156230	      5.22106418	     -0.96283578
      0.90183333	     -8.85745688	     -3.69994533	      2.59883314	     -0.38012196	      0.90160728	      0.36484277	     19.52463558	      9.17578585	     -3.67854488	    -19.70885130	      9.27688103	     -0.08297634	      6.45892025	     22.66142630	     -8.55675040	     -4.83997819	    -63.85688726	      6.33597832	     -2.01697880	      5.59239629	      6.05135921	      5.14165361	     -0.54096505
      0.90600000	     -8.82735466	     -3.57598858	      2.31519723	     -0.37547231	      0.90245611	      0.36547148	     18.92644944	      9.17485034	     -3.36593571	    -19.27497630	      9.33550445	      0.06149126	      6.46970156	     23.14997380	     -8.45560914	     -5.17753656	    -63.32217096	      6.65643969	     -2.07062116	      5.55332578	      5.95250790	      5.06596425	     -0.28562866
      0.91016667	     -8.76782111	     -3.46005745	      2.03748026	     -0.37078335	      0.90331465	      0.36610271	     18.28381271	      9.17651473	     -3.07815236	    -18.81519084	      9.40559310	      0.17880593	      6.48231989	     23.59339033	     -8.37881328	     -5.53293060	    -62.74200016	      6.93616886	     -2.10990411	      5.49819369	      5.84919760	      4.98134550	      0.07204733
      0.91433333	     -8.72735780	     -3.33468412	      1.73401886	     -0.36613993	      0.90409672	      0.36674938	     17.67973827	      9.16667424	     -2.75896134	    -18.38961285	      9.46529144	      0.32504435	      6.49235748	     24.04371659	     -8.29737934	     -5.90731332	    -62.12411724	      7.19763254	     -2.17877679	      5.45590074	      5.74198698	      4.90926729	      0.32896747
      0.91850000	     -8.65911798	     -3.21799123	      1.43991173	     -0.36148164	      0.90487914	      0.36739783	     17.03418749	      9.15897111	     -2.45916472	    -17.93591820	      9.53771371	      0.44899871	      6.50446130	     24.45733107	     -8.23494654	     -6.28455634	    -61.47148630	      7.42024032	     -2.24261237	      5.39863366	      5.62235586	      4.82118430	      0.69373187
      0.92266667	     -8.60955858	     -3.09448043	      1.12653559	     -0.35685311	      0.90558338	      0.36805021	     16.42526180	      9.13950432	     -2.14321853	    -17.51392033	      9.60198091	      0.58723660	      6.51567963	     24.87735396	     -8.17090784	     -6.68052910	    -60.78077663	      7.61926895	     -2.32887045	      5.34793997	      5.51718420	      4.74956803	      0.98041133
      0.92683333	     -8.54644784	     -2.98171501	      0.82674698	     -0.35222639	      0.90625769	      0.36870254	     15.79400419	      9.12357245	     -1.84645849	    -17.07002489	      9.67717944	      0.72329506	      6.52897789	     25.28113689	     -8.12273139	     -7.06798764	    -60.06204631	      7.78406348	     -2.43022429	      5.28498042	      5.39748663	      4.65857230	      1.33318444
      0.93100000	     -8.49030280	     -2.87004900	      0.51321264	     -0.34761539	      0.90687057	      0.36935925	     15.17819394	      9.10370716	     -1.54595431	    -16.63873444	      9.74849498	      0.87133842	      6.54385993	     25.68078877	     -8.08247671	     -7.46783342	    -59.31100054	      7.92569797	     -2.54136797	      5.21532900	      5.27976908	      4.57600152	      1.67141494
      0.93516667	     -8.44364895	     -2.75763079	      0.18932016	     -0.34301003	      0.90742270	      0.37001457	     14.58303566	      9.07573136	     -1.24960735	    -16.22843551	      9.81238678	      1.03131020	      6.55655749	     26.07605632	     -8.04825777	     -7.88208515	    -58.52022071	      8.04005148	     -2.67520763	      5.15948333	      5.18366110	      4.51560015	      1.93240010
      0.93933333	     -8.39967270	     -2.65681528	     -0.13094427	     -0.33843230	      0.90791019	      0.37067564	     13.98894414	      9.05417823	     -0.95525184	    -15.80438855	      9.87329523	      1.21413409	      6.56856091	     26.47660495	     -8.03265058	     -8.29660280	    -57.71691015	      8.12544810	     -2.82928157	      5.11082708	      5.06876537	      4.42275655	      2.19127525
      0.94350000	     -8.33079546	     -2.55288641	     -0.44267384	     -0.33382899	      0.90840404	      0.37129726	     13.36806604	      9.01746185	     -0.68677377	    -15.38506788	      9.95777241	      1.37685836	      6.58353854	     26.82900260	     -8.00366363	     -8.69335195	    -56.85694126	      8.17354180	     -2.99900161	      5.04991087	      4.94666717	      4.36361812	      2.53727641
      0.94766667	     -8.28225457	     -2.46297639	     -0.74373063	     -0.32923856	      0.90880535	      0.37188992	     12.77236677	      8.98551589	     -0.44104528	    -14.96746145	     10.04530269	      1.55117189	      6.60027524	     27.20396697	     -7.98405528	     -9.06970966	    -55.97945870	      8.20303818	     -3.17566372	      4.98509181	      4.85192236	      4.31380262	      2.86035559
      0.95183333	     -8.22933770	     -2.37747486	     -1.04670823	     -0.32465283	      0.90916604	      0.37247564	     12.17414198	      8.95061249	     -0.20906593	    -14.55146607	     10.13241023	      1.74379049	      6.61940877	     27.56261506	     -7.97206577	     -9.44671727	    -55.07002567	      8.20322471	     -3.37091426	      4.91214494	      4.74460703	      4.26306392	      3.18890659
